<svg xmlns="http://www.w3.org/2000/svg" viewBox="0 0 300 450" fill="none">
  <rect width="300" height="450" fill="#f3f4f6"/>
  <path d="M150 180c-13.8 0-25 11.2-25 25s11.2 25 25 25 25-11.2 25-25-11.2-25-25-25zm0 40c-8.3 0-15-6.7-15-15s6.7-15 15-15 15 6.7 15 15-6.7 15-15 15z" fill="#9ca3af"/>
  <path d="M150 140c-35.3 0-64 28.7-64 64s28.7 64 64 64 64-28.7 64-64-28.7-64-64-64zm0 120c-30.9 0-56-25.1-56-56s25.1-56 56-56 56 25.1 56 56-25.1 56-56 56z" fill="#9ca3af"/>
  <text x="150" y="320" text-anchor="middle" font-family="system-ui, sans-serif" font-size="14" fill="#6b7280">No Image</text>
</svg>
